<svg viewBox="0 0 140 140" xmlns="http://www.w3.org/2000/svg">
  <defs>
    <radialGradient id="bg" cx="50%" cy="60%" r="50%">
      <stop offset="0%" stop-color="#ffd700" stop-opacity="0.2"/>
      <stop offset="100%" stop-color="#ffd700" stop-opacity="0"/>
    </radialGradient>
    <linearGradient id="flame" x1="50%" y1="0%" x2="50%" y2="100%">
      <stop offset="0%" stop-color="#fff5a8"/>
      <stop offset="40%" stop-color="#ffd700"/>
      <stop offset="100%" stop-color="#ff8c00"/>
    </linearGradient>
    <linearGradient id="base" x1="0%" y1="0%" x2="0%" y2="100%">
      <stop offset="0%" stop-color="#00e664"/>
      <stop offset="100%" stop-color="#007a33"/>
    </linearGradient>
  </defs>
  <circle cx="70" cy="80" r="60" fill="url(#bg)"/>
  <path d="M 70 20 Q 50 40 50 60 Q 50 80 62 88 Q 56 78 62 70 Q 65 78 70 74 Q 75 78 78 70 Q 84 78 78 88 Q 90 80 90 60 Q 90 40 70 20 Z" fill="url(#flame)"/>
  <path d="M 70 40 Q 62 55 62 68 Q 62 78 70 82 Q 78 78 78 68 Q 78 55 70 40 Z" fill="#fff5a8" opacity="0.7"/>
  <rect x="48" y="92" width="44" height="8" rx="4" fill="url(#base)"/>
  <rect x="52" y="102" width="36" height="6" rx="3" fill="#007a33"/>
  <circle cx="70" cy="60" r="3" fill="#ffffff"/>
</svg>
